<svg width="857" height="674" viewBox="0 0 857 674" fill="none" xmlns="http://www.w3.org/2000/svg">
<g clip-path="url(#clip0_2_3)">
<path d="M421.325 153.136H417.784V56.1392C417.784 41.2502 411.869 26.9709 401.341 16.4428C390.813 5.91467 376.534 1.85655e-05 361.645 3.56295e-10H156.144C148.772 -2.62641e-05 141.471 1.45203 134.66 4.27326C127.849 7.09449 121.66 11.2296 116.447 16.4426C111.234 21.6556 107.099 27.8443 104.278 34.6554C101.457 41.4665 100.005 48.7666 100.005 56.1389V588.271C100.005 595.644 101.457 602.944 104.278 609.755C107.099 616.566 111.234 622.755 116.447 627.968C121.66 633.181 127.849 637.316 134.66 640.137C141.471 642.958 148.771 644.411 156.144 644.411H361.645C369.017 644.411 376.317 642.958 383.128 640.137C389.939 637.316 396.128 633.181 401.341 627.968C406.554 622.755 410.689 616.566 413.51 609.755C416.332 602.944 417.784 595.644 417.784 588.272V222.18H421.325V153.136Z" fill="#3F3D56"/>
<path d="M363.487 15.9332H336.662C337.896 18.9576 338.367 22.2389 338.034 25.4882C337.7 28.7374 336.573 31.8548 334.751 34.5658C332.929 37.2768 330.469 39.4981 327.586 41.0341C324.703 42.57 321.487 43.3736 318.221 43.3738H200.492C197.226 43.3735 194.01 42.57 191.127 41.0341C188.245 39.4981 185.784 37.2768 183.962 34.5658C182.14 31.8548 181.013 28.7374 180.68 25.4882C180.346 22.239 180.817 18.9576 182.051 15.9332H156.996C145.878 15.9332 135.214 20.3502 127.352 28.2124C119.489 36.0747 115.072 46.7383 115.072 57.8572V589.209C115.072 594.714 116.157 600.166 118.264 605.252C120.37 610.339 123.459 614.961 127.352 618.854C131.245 622.747 135.866 625.835 140.953 627.942C146.039 630.048 151.491 631.133 156.996 631.133H363.487C374.606 631.133 385.27 626.716 393.132 618.854C400.994 610.991 405.411 600.328 405.411 589.209V57.8573C405.411 52.3518 404.327 46.9001 402.22 41.8136C400.113 36.7272 397.025 32.1055 393.132 28.2125C389.239 24.3195 384.617 21.2314 379.531 19.1245C374.444 17.0176 368.993 15.9332 363.487 15.9332H363.487ZM358.98 262.431C358.972 265.308 357.825 268.065 355.79 270.1C353.756 272.135 350.999 273.281 348.121 273.29H295.635C292.758 273.281 290 272.135 287.966 270.1C285.931 268.065 284.784 265.308 284.776 262.431V259.716C284.784 256.838 285.931 254.081 287.966 252.046C290 250.012 292.758 248.865 295.635 248.857H348.121C350.999 248.865 353.756 250.012 355.79 252.046C357.825 254.081 358.972 256.838 358.98 259.716V262.431ZM364.862 214.469C364.854 217.347 363.707 220.104 361.673 222.138C359.638 224.173 356.881 225.32 354.003 225.328H165.777C162.9 225.32 160.142 224.173 158.108 222.138C156.073 220.104 154.926 217.347 154.918 214.469V211.754C154.926 208.877 156.073 206.12 158.108 204.085C160.142 202.05 162.9 200.904 165.777 200.895H354.003C356.881 200.904 359.638 202.05 361.673 204.085C363.707 206.12 364.854 208.877 364.862 211.754V214.469ZM364.862 166.508C364.854 169.385 363.707 172.142 361.673 174.177C359.638 176.212 356.881 177.358 354.003 177.367H165.777C162.9 177.358 160.142 176.212 158.108 174.177C156.073 172.142 154.926 169.385 154.918 166.508V163.793C154.926 160.915 156.073 158.158 158.108 156.124C160.142 154.089 162.9 152.942 165.777 152.934H354.003C356.881 152.942 359.638 154.089 361.673 156.124C363.707 158.158 364.854 160.915 364.862 163.793V166.508ZM364.862 118.546C364.854 121.424 363.707 124.181 361.673 126.216C359.638 128.25 356.881 129.397 354.003 129.405H165.777C162.9 129.397 160.142 128.25 158.108 126.216C156.073 124.181 154.926 121.424 154.918 118.546V115.831C154.926 112.954 156.073 110.197 158.108 108.162C160.142 106.127 162.9 104.981 165.777 104.972H354.003C356.881 104.981 359.638 106.127 361.673 108.162C363.707 110.197 364.854 112.954 364.862 115.831V118.546Z" fill="white"/>
<path d="M169.849 219.899C173.348 219.899 176.184 217.063 176.184 213.564C176.184 210.066 173.348 207.23 169.849 207.23C166.351 207.23 163.515 210.066 163.515 213.564C163.515 217.063 166.351 219.899 169.849 219.899Z" fill="white"/>
<path d="M190.663 219.899C194.161 219.899 196.997 217.063 196.997 213.564C196.997 210.066 194.161 207.23 190.663 207.23C187.164 207.23 184.328 210.066 184.328 213.564C184.328 217.063 187.164 219.899 190.663 219.899Z" fill="white"/>
<path d="M211.476 219.899C214.975 219.899 217.811 217.063 217.811 213.564C217.811 210.066 214.975 207.23 211.476 207.23C207.978 207.23 205.142 210.066 205.142 213.564C205.142 217.063 207.978 219.899 211.476 219.899Z" fill="white"/>
<path d="M232.29 219.899C235.788 219.899 238.624 217.063 238.624 213.564C238.624 210.066 235.788 207.23 232.29 207.23C228.791 207.23 225.955 210.066 225.955 213.564C225.955 217.063 228.791 219.899 232.29 219.899Z" fill="white"/>
<path d="M300.16 267.86C303.658 267.86 306.494 265.024 306.494 261.526C306.494 258.027 303.658 255.191 300.16 255.191C296.661 255.191 293.825 258.027 293.825 261.526C293.825 265.024 296.661 267.86 300.16 267.86Z" fill="white"/>
<path d="M320.973 267.86C324.472 267.86 327.308 265.024 327.308 261.526C327.308 258.027 324.472 255.191 320.973 255.191C317.475 255.191 314.639 258.027 314.639 261.526C314.639 265.024 317.475 267.86 320.973 267.86Z" fill="white"/>
<path d="M341.787 267.86C345.285 267.86 348.121 265.024 348.121 261.526C348.121 258.027 345.285 255.191 341.787 255.191C338.288 255.191 335.452 258.027 335.452 261.526C335.452 265.024 338.288 267.86 341.787 267.86Z" fill="white"/>
<path d="M366.319 343.601H151.652C146.609 343.601 141.772 345.605 138.206 349.171C134.64 352.737 132.636 357.574 132.636 362.617V467.207C132.636 472.25 134.64 477.087 138.206 480.653C141.772 484.219 146.609 486.223 151.652 486.223H366.319C371.362 486.223 376.199 484.219 379.765 480.653C383.331 477.087 385.334 472.25 385.334 467.207V362.617C385.334 357.574 383.331 352.737 379.765 349.171C376.199 345.605 371.362 343.601 366.319 343.601H366.319ZM146.341 356.573C146.765 356.496 156.816 354.786 165.14 359.794C173.463 364.801 176.661 374.485 176.793 374.894L177.129 375.938L176.049 376.13C174.508 376.37 172.95 376.485 171.391 376.472C166.443 376.566 161.561 375.336 157.249 372.908C148.926 367.901 145.729 358.218 145.597 357.809L145.26 356.764L146.341 356.573ZM192.939 453.678H154.652C151.859 453.678 149.181 452.569 147.206 450.594C145.232 448.62 144.122 445.941 144.122 443.149C144.122 440.356 145.232 437.678 147.206 435.704C149.181 433.729 151.859 432.62 154.652 432.62H192.939C195.732 432.62 198.41 433.729 200.384 435.704C202.359 437.678 203.468 440.356 203.468 443.149C203.468 445.941 202.359 448.62 200.384 450.594C198.41 452.569 195.732 453.678 192.939 453.678V453.678ZM367.148 451.764C367.139 454.807 365.926 457.724 363.774 459.876C361.621 462.028 358.705 463.241 355.661 463.25H326.946C323.902 463.241 320.986 462.028 318.834 459.876C316.681 457.724 315.468 454.807 315.459 451.764V434.534C315.468 431.491 316.681 428.574 318.834 426.422C320.986 424.27 323.902 423.057 326.946 423.048H355.661C358.705 423.057 361.621 424.27 363.774 426.422C365.926 428.574 367.139 431.491 367.148 434.534L367.148 451.764Z" fill="#377D71"/>
<path d="M336.204 448.213H324.659C323.834 448.213 323.043 448.541 322.46 449.124C321.878 449.707 321.55 450.497 321.55 451.322C321.55 452.146 321.878 452.937 322.46 453.52C323.043 454.103 323.834 454.43 324.659 454.43H336.204C337.029 454.43 337.819 454.103 338.402 453.52C338.985 452.937 339.313 452.146 339.313 451.322C339.313 450.497 338.985 449.707 338.402 449.124C337.819 448.541 337.029 448.213 336.204 448.213V448.213Z" fill="#3F3D56"/>
<path d="M357.52 448.213H345.974C345.149 448.213 344.359 448.541 343.776 449.124C343.193 449.707 342.865 450.497 342.865 451.322C342.865 452.146 343.193 452.937 343.776 453.52C344.359 454.103 345.149 454.43 345.974 454.43H357.52C358.344 454.43 359.135 454.103 359.718 453.52C360.301 452.937 360.628 452.146 360.628 451.322C360.628 450.497 360.301 449.707 359.718 449.124C359.135 448.541 358.344 448.213 357.52 448.213V448.213Z" fill="#3F3D56"/>
<path d="M336.203 439.438H324.657C323.832 439.438 323.042 439.766 322.459 440.349C321.876 440.932 321.548 441.723 321.548 442.547C321.548 443.371 321.876 444.162 322.459 444.745C323.042 445.328 323.832 445.655 324.657 445.655H336.203C337.027 445.655 337.818 445.328 338.401 444.745C338.984 444.162 339.311 443.371 339.311 442.547C339.311 441.723 338.984 440.932 338.401 440.349C337.818 439.766 337.027 439.438 336.203 439.438V439.438Z" fill="#3F3D56"/>
<path d="M357.518 439.438H345.972C345.148 439.438 344.357 439.766 343.774 440.349C343.191 440.932 342.864 441.723 342.864 442.547C342.864 443.371 343.191 444.162 343.774 444.745C344.357 445.328 345.148 445.655 345.972 445.655H357.518C358.342 445.655 359.133 445.328 359.716 444.745C360.299 444.162 360.626 443.371 360.626 442.547C360.626 441.723 360.299 440.932 359.716 440.349C359.133 439.766 358.342 439.438 357.518 439.438H357.518Z" fill="#3F3D56"/>
<path d="M336.203 430.841H324.657C323.832 430.841 323.042 431.169 322.459 431.752C321.876 432.335 321.548 433.125 321.548 433.95C321.548 434.774 321.876 435.565 322.459 436.148C323.042 436.731 323.832 437.058 324.657 437.058H336.203C337.027 437.058 337.818 436.731 338.401 436.148C338.984 435.565 339.311 434.774 339.311 433.95C339.311 433.125 338.984 432.335 338.401 431.752C337.818 431.169 337.027 430.841 336.203 430.841V430.841Z" fill="#3F3D56"/>
<path d="M357.518 430.841H345.972C345.148 430.841 344.357 431.169 343.774 431.752C343.191 432.335 342.864 433.125 342.864 433.95C342.864 434.774 343.191 435.565 343.774 436.148C344.357 436.731 345.148 437.058 345.972 437.058H357.518C358.342 437.058 359.133 436.731 359.716 436.148C360.299 435.565 360.626 434.774 360.626 433.95C360.626 433.125 360.299 432.335 359.716 431.752C359.133 431.169 358.342 430.841 357.518 430.841H357.518Z" fill="#3F3D56"/>
<path d="M515 383H487V411H515V383Z" fill="#E6E6E6"/>
<path d="M454 400H500V446H454V400ZM498 402H456V444H498V402Z" fill="#3F3D56"/>
<path d="M28 152H0V180H28V152Z" fill="#E6E6E6"/>
<path d="M61 163H15V117H61V163ZM17 161H59V119H17V161Z" fill="#3F3D56"/>
<path d="M653.077 661.417H640.817L634.985 614.129H653.079L653.077 661.417Z" fill="#FFB8B8"/>
<path d="M632.06 657.914H655.704V672.8H617.173C617.173 668.852 618.742 665.066 621.533 662.274C624.325 659.482 628.112 657.914 632.06 657.914V657.914Z" fill="#2F2E41"/>
<path d="M714.077 661.417H701.817L695.985 614.129H714.079L714.077 661.417Z" fill="#FFB8B8"/>
<path d="M693.06 657.914H716.704V672.8H678.173C678.173 668.852 679.742 665.066 682.533 662.274C685.325 659.482 689.112 657.914 693.06 657.914V657.914Z" fill="#2F2E41"/>
<path d="M591.576 492.303C590.694 491.004 590.108 489.527 589.858 487.976C589.609 486.426 589.702 484.839 590.133 483.329C590.563 481.818 591.319 480.421 592.347 479.234C593.376 478.047 594.652 477.1 596.086 476.46L637.762 361.594L658.269 372.785L610.685 482.556C611.6 485.036 611.574 487.767 610.611 490.229C609.648 492.692 607.815 494.716 605.46 495.917C603.105 497.119 600.39 497.414 597.831 496.748C595.272 496.082 593.047 494.501 591.576 492.303V492.303Z" fill="#FFB8B8"/>
<path d="M707.815 513.887C706.452 513.106 705.278 512.036 704.374 510.752C703.47 509.467 702.858 508.001 702.582 506.454C702.307 504.908 702.373 503.321 702.777 501.803C703.181 500.285 703.913 498.875 704.922 497.671L692.011 376.161L715.349 377.228L720.714 496.748C722.625 498.576 723.799 501.041 724.013 503.677C724.227 506.312 723.467 508.935 721.877 511.047C720.287 513.16 717.978 514.616 715.386 515.139C712.794 515.663 710.1 515.217 707.815 513.887V513.887Z" fill="#FFB8B8"/>
<path d="M670.584 340.317C684.149 340.317 695.145 329.321 695.145 315.756C695.145 302.192 684.149 291.195 670.584 291.195C657.02 291.195 646.023 302.192 646.023 315.756C646.023 329.321 657.02 340.317 670.584 340.317Z" fill="#FFB8B8"/>
<path d="M707.658 486.252H633.611L633.7 485.676C633.833 484.815 646.897 399.237 637.262 371.24C636.295 368.489 636.38 365.477 637.501 362.785C638.621 360.093 640.698 357.91 643.331 356.657H643.332C657.103 350.171 683.539 342.186 705.852 361.566C709.135 364.465 711.699 368.088 713.341 372.148C714.982 376.209 715.657 380.596 715.311 384.962L707.658 486.252Z" fill="#CCCCCC"/>
<path d="M647.833 411.884L614.496 405.121L630.122 368.091C631.057 364.505 633.377 361.435 636.572 359.557C639.767 357.678 643.577 357.143 647.166 358.069C650.755 358.996 653.829 361.308 655.716 364.499C657.602 367.689 658.146 371.498 657.228 375.089L647.833 411.884Z" fill="#CCCCCC"/>
<path d="M690.529 424.442L688.525 378.5C687.005 369.864 691.949 361.7 699.552 360.366C707.157 359.036 714.584 365.026 716.11 373.726L723.643 416.653L690.529 424.442Z" fill="#CCCCCC"/>
<path d="M705.194 480.752C717.109 526.129 718.409 583.822 715.194 646.752L699.194 644.752L670.194 524.752L654.194 646.752L636.194 645.752C630.817 579.723 625.581 523.037 634.194 485.752L705.194 480.752Z" fill="#2F2E41"/>
<path d="M686.767 334.738C682.185 339.619 673.676 336.998 673.079 330.331C673.032 329.813 673.036 329.292 673.089 328.775C673.398 325.821 675.104 323.14 674.695 320.021C674.603 319.245 674.313 318.506 673.855 317.872C670.204 312.983 661.633 320.059 658.187 315.633C656.074 312.919 658.558 308.646 656.936 305.613C654.796 301.609 648.457 303.584 644.482 301.391C640.06 298.952 640.324 292.166 643.235 288.039C646.786 283.005 653.011 280.319 659.159 279.932C665.306 279.545 671.412 281.207 677.151 283.444C683.672 285.985 690.139 289.497 694.152 295.231C699.032 302.204 699.502 311.579 697.061 319.733C695.576 324.693 690.509 330.752 686.767 334.738Z" fill="#2F2E41"/>
<path d="M855.122 674H474.122C473.857 674 473.602 673.895 473.415 673.707C473.227 673.52 473.122 673.265 473.122 673C473.122 672.735 473.227 672.48 473.415 672.293C473.602 672.105 473.857 672 474.122 672H855.122C855.387 672 855.642 672.105 855.829 672.293C856.017 672.48 856.122 672.735 856.122 673C856.122 673.265 856.017 673.52 855.829 673.707C855.642 673.895 855.387 674 855.122 674Z" fill="#3F3D56"/>
</g>
<defs>
<clipPath id="clip0_2_3">
<rect width="856.122" height="674" fill="white"/>
</clipPath>
</defs>
</svg>
